PathFileType	4	(X/Y/Z)	OpenSim_Sub03_EMGBaseline_Magnet.trc
DataRate	CameraRate	NumFrames	NumMarkers	Units	OrigDataRate	OrigDataStartFrame	OrigNumFrames
100	100	20	8	m	100	2765	7372
Frame#	Time	torso_imu_offset_imu	pelvis_imu_offset_imu	tibia_r_imu_offset_imu	femur_r_imu_offset_imu	tibia_l_imu_offset_imu	femur_l_imu_offset_imu	toes_r_imu_offset_imu	toes_l_imu_offset_imu
				X1	Y1	Z1	X2	Y2	Z2	X3	Y3	Z3	X4	Y4	Z4	X5	Y5	Z5	X6	Y6	Z6	X7	Y7	Z7	X8		Y8	Z8	

2765	27.64000000	-0.89770776	-0.14457793	0.21828348	-0.70899986	0.11496404	-0.60655750	-0.52191584	-0.62930480	0.01521214	-0.64315536	-0.51090840	0.15441067	-0.72354952	0.31115499	0.11607521	-0.80044863	0.12249730	0.20709239	-0.70626786	-0.22276524	-0.27946732	-0.67417465	-0.12728315	-0.40692315
2766	27.65000000	-0.89747809	-0.14070792	0.21920505	-0.70591134	0.11751341	-0.60809825	-0.51297235	-0.63391953	0.01203403	-0.64047742	-0.51437938	0.15125725	-0.72698754	0.27821738	0.11481156	-0.80012921	0.12874514	0.21257285	-0.70983952	-0.23515116	-0.27296107	-0.65522118	-0.14978700	-0.43059198
2767	27.66000000	-0.89639566	-0.14796287	0.22424902	-0.71211490	0.12271141	-0.60368000	-0.50020134	-0.64114636	0.00850580	-0.64401503	-0.52388359	0.14903490	-0.74270348	0.25074375	0.11501767	-0.79769855	0.13788506	0.20879168	-0.71095441	-0.23828836	-0.26726299	-0.64118641	-0.16234462	-0.45407447
2768	27.67000000	-0.89558768	-0.15496175	0.21784841	-0.71031521	0.12502711	-0.60325740	-0.50092975	-0.64566158	0.00775937	-0.64155011	-0.52228784	0.14815384	-0.74990523	0.23109953	0.11251312	-0.79233300	0.14368409	0.20861098	-0.71007899	-0.23778583	-0.25820818	-0.62144486	-0.17148140	-0.47328610
2769	27.68000000	-0.89585692	-0.14897524	0.21341484	-0.70792927	0.12930933	-0.60430903	-0.49773754	-0.65162422	0.00502014	-0.63374432	-0.52710575	0.14005216	-0.75230352	0.20874162	0.11508551	-0.79063334	0.15418621	0.21553973	-0.71327829	-0.24199766	-0.25211856	-0.61105444	-0.17044549	-0.48705658
2770	27.69000000	-0.89338658	-0.15161499	0.21751063	-0.70750310	0.12935030	-0.59989450	-0.48787976	-0.65452737	-0.00365385	-0.63509280	-0.53092872	0.13249642	-0.75504295	0.18817979	0.11846400	-0.79054027	0.15519568	0.21943439	-0.71640266	-0.24346497	-0.24955927	-0.60113860	-0.17020857	-0.49389994
2771	27.70000000	-0.89861858	-0.15853504	0.21472010	-0.71041608	0.13257185	-0.60571851	-0.48046141	-0.65668150	-0.00043486	-0.63288228	-0.53110951	0.13197589	-0.76380096	0.17689127	0.12111053	-0.79094998	0.16135122	0.21772399	-0.71509286	-0.24718530	-0.23682758	-0.59084587	-0.18037176	-0.50502533
2772	27.71000000	-0.89863985	-0.16174218	0.20989540	-0.71133854	0.13571725	-0.60180582	-0.47006032	-0.66410653	-0.00041360	-0.63168918	-0.53347298	0.12896475	-0.76768051	0.16702071	0.12479679	-0.78635315	0.16600783	0.21761965	-0.71614382	-0.25398928	-0.22999949	-0.58579844	-0.18315149	-0.50925746
2773	27.72000000	-0.89937510	-0.16511479	0.20468037	-0.71245180	0.13522711	-0.59406921	-0.46631154	-0.67252453	-0.00652270	-0.63926794	-0.53606366	0.12511188	-0.76070164	0.16303607	0.12329966	-0.78610406	0.16316199	0.22209631	-0.71361871	-0.25870562	-0.22270874	-0.58652349	-0.18428131	-0.50941275
2774	27.73000000	-0.89785023	-0.16050649	0.20556845	-0.71289201	0.13865584	-0.59054796	-0.45606928	-0.67697173	-0.01151896	-0.63458738	-0.54071500	0.11608776	-0.76007589	0.16558878	0.12373872	-0.78857482	0.16111241	0.22006040	-0.71623616	-0.26493853	-0.21102802	-0.59149693	-0.17738457	-0.50307218
2775	27.74000000	-0.89657654	-0.16750500	0.20281439	-0.71254079	0.13924522	-0.59336212	-0.44284195	-0.68189838	-0.01262623	-0.63094371	-0.54368130	0.11816845	-0.76010842	0.17518337	0.13117477	-0.78496359	0.16375906	0.22370999	-0.71739664	-0.27080031	-0.20693055	-0.60412721	-0.16605834	-0.48906756
2776	27.75000000	-0.89667579	-0.16669018	0.20381970	-0.71888147	0.14586002	-0.58684558	-0.43383857	-0.68948824	-0.01679366	-0.62936708	-0.54121152	0.11256119	-0.75725082	0.18920316	0.13214622	-0.78188792	0.16697662	0.22309921	-0.71768672	-0.27411025	-0.19535248	-0.62468559	-0.16393452	-0.46053012
2777	27.76000000	-0.89619107	-0.16238261	0.19825298	-0.71816240	0.14719803	-0.58517409	-0.42084148	-0.70031997	-0.02186659	-0.62788428	-0.53881827	0.10664897	-0.75670867	0.20092578	0.13771085	-0.78174974	0.17023919	0.22457999	-0.72443326	-0.27904879	-0.17695595	-0.63698844	-0.15207080	-0.44976642
2778	27.77000000	-0.89477877	-0.16600360	0.19280524	-0.71360711	0.14579372	-0.58287628	-0.41445330	-0.70686706	-0.02320127	-0.63242877	-0.54244476	0.10218179	-0.75194967	0.20747840	0.14260198	-0.78101097	0.17366199	0.23567809	-0.72145463	-0.28277706	-0.16266236	-0.64760376	-0.14012094	-0.43741426
2779	27.78000000	-0.89740751	-0.17210691	0.18505346	-0.71853260	0.14803739	-0.58154496	-0.40062474	-0.71396858	-0.02633352	-0.63312769	-0.54080987	0.10340552	-0.75289491	0.20612681	0.14379512	-0.78169205	0.17577847	0.24039204	-0.71890656	-0.28672444	-0.14971122	-0.66859717	-0.12763283	-0.41104923
2780	27.79000000	-0.89471096	-0.17420846	0.18604598	-0.72002359	0.14239314	-0.58570100	-0.38333423	-0.71794667	-0.02970915	-0.63374391	-0.53532991	0.10138590	-0.75092011	0.20907679	0.14843778	-0.77725141	0.18514368	0.24107660	-0.72141808	-0.29378170	-0.13810570	-0.68569468	-0.11348031	-0.39575760
2781	27.80000000	-0.89660757	-0.17037073	0.18249595	-0.71700119	0.13974124	-0.58349544	-0.37255210	-0.72658871	-0.03189631	-0.63766298	-0.53371800	0.09565289	-0.74823999	0.21371009	0.15882345	-0.77542014	0.19676201	0.24673880	-0.71996158	-0.30566080	-0.11686313	-0.69204982	-0.09801822	-0.37969933
2782	27.81000000	-0.89669750	-0.17666146	0.17745762	-0.72101311	0.13593628	-0.57636450	-0.35876066	-0.73537382	-0.03182420	-0.64473960	-0.52710587	0.09339733	-0.74472931	0.21480376	0.16321007	-0.76511882	0.19873191	0.24838613	-0.72098541	-0.31404251	-0.09281561	-0.69546863	-0.08491531	-0.37717438
2783	27.82000000	-0.89548046	-0.17687599	0.17614172	-0.72298632	0.13501677	-0.57413825	-0.33948071	-0.74228783	-0.03675545	-0.65017182	-0.52042879	0.09030872	-0.73434606	0.22843513	0.16502828	-0.76437342	0.21164680	0.24493085	-0.71777754	-0.32897094	-0.07147142	-0.69621714	-0.08196613	-0.38051761
2784	27.83000000	-0.89917095	-0.17533028	0.17078395	-0.72166046	0.13261483	-0.57747800	-0.32719818	-0.74363754	-0.04406898	-0.65478992	-0.51577461	0.08542902	-0.73801716	0.23573528	0.17402642	-0.76723386	0.21469616	0.23893285	-0.71047925	-0.34593688	-0.04215327	-0.70208212	-0.07779131	-0.37794855
